<svg width="16" height="14" viewBox="0 0 16 14" fill="none" xmlns="http://www.w3.org/2000/svg">
<path d="M1.21302 7.01179C0.637387 7.29528 0.661269 7.71047 1.26476 7.93465L3.05286 8.59876C3.65686 8.82387 4.57081 8.70104 5.08276 8.32602L12.8476 2.5778C13.3581 2.20091 13.4128 2.25649 12.9695 2.70203L6.83105 8.86964C6.38627 9.31379 6.51761 9.85928 7.1236 10.0793L7.33305 10.1558C7.93904 10.3758 8.92662 10.7452 9.52862 10.975L11.5118 11.733C12.1143 11.9628 12.758 11.6919 12.9292 11.1034L15.9516 0.674653C16.1223 0.0861948 15.7909 -0.163667 15.2153 0.119354L1.21302 7.01179Z" fill="white"/>
<path d="M6.1201 13.8393C6.08478 13.9388 7.34301 12.129 7.34301 12.129C7.69874 11.619 7.49675 11.0105 6.89574 10.7798L5.52357 10.2525C4.92256 10.0218 4.6345 10.2927 4.88326 10.8564C4.88326 10.8564 6.15642 13.737 6.1201 13.8393Z" fill="white"/>
</svg>
